<mxfile host="app.diagrams.net" modified="2021-09-08T19:50:27.969Z" agent="5.0 (Windows NT 10.0; Win64; x64) AppleWebKit/537.36 (KHTML, like Gecko) Chrome/93.0.4577.63 Safari/537.36" etag="BaT39xYOgW_akytumuKt" version="15.1.2" type="github">
  <diagram id="C1DIbBVYYJy07VbKHC48" name="Page-1">
    <mxGraphModel dx="1400" dy="1390" grid="1" gridSize="10" guides="1" tooltips="1" connect="1" arrows="1" fold="1" page="1" pageScale="1" pageWidth="827" pageHeight="1169" background="#ffffff" math="0" shadow="0">
      <root>
        <mxCell id="0" />
        <mxCell id="1" parent="0" />
        <mxCell id="G_dQVVGBKOdECIuTIiWy-27" style="edgeStyle=orthogonalEdgeStyle;rounded=0;orthogonalLoop=1;jettySize=auto;html=1;" parent="1" source="G_dQVVGBKOdECIuTIiWy-3" edge="1">
          <mxGeometry relative="1" as="geometry">
            <mxPoint x="420" y="250" as="targetPoint" />
          </mxGeometry>
        </mxCell>
        <mxCell id="G_dQVVGBKOdECIuTIiWy-3" value="Drives into the garage" style="rounded=0;whiteSpace=wrap;html=1;" parent="1" vertex="1">
          <mxGeometry x="120" y="200" width="80" height="40" as="geometry" />
        </mxCell>
        <mxCell id="G_dQVVGBKOdECIuTIiWy-26" style="edgeStyle=orthogonalEdgeStyle;rounded=0;orthogonalLoop=1;jettySize=auto;html=1;entryX=0.5;entryY=0;entryDx=0;entryDy=0;" parent="1" source="G_dQVVGBKOdECIuTIiWy-4" target="G_dQVVGBKOdECIuTIiWy-3" edge="1">
          <mxGeometry relative="1" as="geometry" />
        </mxCell>
        <mxCell id="G_dQVVGBKOdECIuTIiWy-4" value="START" style="ellipse;whiteSpace=wrap;html=1;aspect=fixed;" parent="1" vertex="1">
          <mxGeometry x="40" y="120" width="40" height="40" as="geometry" />
        </mxCell>
        <mxCell id="G_dQVVGBKOdECIuTIiWy-6" value="Client" style="text;html=1;strokeColor=none;fillColor=none;align=center;verticalAlign=middle;whiteSpace=wrap;rounded=0;" parent="1" vertex="1">
          <mxGeometry x="120" y="60" width="40" height="20" as="geometry" />
        </mxCell>
        <mxCell id="G_dQVVGBKOdECIuTIiWy-7" value="Camera" style="text;html=1;strokeColor=none;fillColor=none;align=center;verticalAlign=middle;whiteSpace=wrap;rounded=0;" parent="1" vertex="1">
          <mxGeometry x="400" y="60" width="40" height="20" as="geometry" />
        </mxCell>
        <mxCell id="G_dQVVGBKOdECIuTIiWy-8" value="System" style="text;html=1;strokeColor=none;fillColor=none;align=center;verticalAlign=middle;whiteSpace=wrap;rounded=0;" parent="1" vertex="1">
          <mxGeometry x="680" y="60" width="40" height="20" as="geometry" />
        </mxCell>
        <mxCell id="G_dQVVGBKOdECIuTIiWy-11" value="" style="endArrow=none;html=1;dashed=1;" parent="1" edge="1">
          <mxGeometry width="50" height="50" relative="1" as="geometry">
            <mxPoint x="280" y="1120" as="sourcePoint" />
            <mxPoint x="280" y="60" as="targetPoint" />
          </mxGeometry>
        </mxCell>
        <mxCell id="G_dQVVGBKOdECIuTIiWy-12" value="" style="endArrow=none;html=1;dashed=1;" parent="1" edge="1">
          <mxGeometry width="50" height="50" relative="1" as="geometry">
            <mxPoint x="560" y="1120" as="sourcePoint" />
            <mxPoint x="560" y="60" as="targetPoint" />
          </mxGeometry>
        </mxCell>
        <mxCell id="G_dQVVGBKOdECIuTIiWy-15" value="Scan card" style="rounded=0;whiteSpace=wrap;html=1;" parent="1" vertex="1">
          <mxGeometry x="320" y="280" width="80" height="40" as="geometry" />
        </mxCell>
        <mxCell id="G_dQVVGBKOdECIuTIiWy-16" value="Scan plates" style="rounded=0;whiteSpace=wrap;html=1;" parent="1" vertex="1">
          <mxGeometry x="440" y="280" width="80" height="40" as="geometry" />
        </mxCell>
        <mxCell id="G_dQVVGBKOdECIuTIiWy-25" value="" style="edgeStyle=orthogonalEdgeStyle;rounded=0;orthogonalLoop=1;jettySize=auto;html=1;" parent="1" source="G_dQVVGBKOdECIuTIiWy-17" target="G_dQVVGBKOdECIuTIiWy-24" edge="1">
          <mxGeometry relative="1" as="geometry" />
        </mxCell>
        <mxCell id="G_dQVVGBKOdECIuTIiWy-17" value="Save client profile" style="rounded=0;whiteSpace=wrap;html=1;" parent="1" vertex="1">
          <mxGeometry x="600" y="600" width="80" height="40" as="geometry" />
        </mxCell>
        <mxCell id="G_dQVVGBKOdECIuTIiWy-22" value="There is no &lt;br&gt;free space in &lt;br&gt;the parking lot" style="edgeStyle=orthogonalEdgeStyle;rounded=0;orthogonalLoop=1;jettySize=auto;html=1;entryX=0.5;entryY=0;entryDx=0;entryDy=0;" parent="1" source="G_dQVVGBKOdECIuTIiWy-20" target="G_dQVVGBKOdECIuTIiWy-21" edge="1">
          <mxGeometry relative="1" as="geometry" />
        </mxCell>
        <mxCell id="G_dQVVGBKOdECIuTIiWy-23" value="There is free&lt;br&gt;space in the&amp;nbsp;&lt;br&gt;parking lot" style="edgeStyle=orthogonalEdgeStyle;rounded=0;orthogonalLoop=1;jettySize=auto;html=1;" parent="1" source="G_dQVVGBKOdECIuTIiWy-20" target="G_dQVVGBKOdECIuTIiWy-17" edge="1">
          <mxGeometry relative="1" as="geometry" />
        </mxCell>
        <mxCell id="G_dQVVGBKOdECIuTIiWy-20" value="" style="rhombus;whiteSpace=wrap;html=1;" parent="1" vertex="1">
          <mxGeometry x="600" y="400" width="80" height="80" as="geometry" />
        </mxCell>
        <mxCell id="G_dQVVGBKOdECIuTIiWy-39" style="edgeStyle=orthogonalEdgeStyle;rounded=0;orthogonalLoop=1;jettySize=auto;html=1;" parent="1" source="G_dQVVGBKOdECIuTIiWy-21" target="G_dQVVGBKOdECIuTIiWy-36" edge="1">
          <mxGeometry relative="1" as="geometry">
            <Array as="points">
              <mxPoint x="760" y="740" />
              <mxPoint x="160" y="740" />
            </Array>
          </mxGeometry>
        </mxCell>
        <mxCell id="G_dQVVGBKOdECIuTIiWy-21" value="Direct client outside" style="rounded=0;whiteSpace=wrap;html=1;" parent="1" vertex="1">
          <mxGeometry x="720" y="600" width="80" height="40" as="geometry" />
        </mxCell>
        <mxCell id="G_dQVVGBKOdECIuTIiWy-38" style="edgeStyle=orthogonalEdgeStyle;rounded=0;orthogonalLoop=1;jettySize=auto;html=1;" parent="1" source="G_dQVVGBKOdECIuTIiWy-24" target="G_dQVVGBKOdECIuTIiWy-36" edge="1">
          <mxGeometry relative="1" as="geometry">
            <Array as="points">
              <mxPoint x="640" y="740" />
              <mxPoint x="160" y="740" />
            </Array>
          </mxGeometry>
        </mxCell>
        <mxCell id="G_dQVVGBKOdECIuTIiWy-24" value="Direct client to parking lot" style="rounded=0;whiteSpace=wrap;html=1;" parent="1" vertex="1">
          <mxGeometry x="600" y="680" width="80" height="40" as="geometry" />
        </mxCell>
        <mxCell id="G_dQVVGBKOdECIuTIiWy-30" style="edgeStyle=orthogonalEdgeStyle;rounded=0;orthogonalLoop=1;jettySize=auto;html=1;" parent="1" target="G_dQVVGBKOdECIuTIiWy-15" edge="1">
          <mxGeometry relative="1" as="geometry">
            <mxPoint x="360" y="257" as="sourcePoint" />
            <Array as="points">
              <mxPoint x="360" y="257" />
            </Array>
          </mxGeometry>
        </mxCell>
        <mxCell id="G_dQVVGBKOdECIuTIiWy-29" value="" style="line;strokeWidth=1;fillColor=none;align=left;verticalAlign=middle;spacingTop=-1;spacingLeft=3;spacingRight=3;rotatable=0;labelPosition=right;points=[];portConstraint=eastwest;" parent="1" vertex="1">
          <mxGeometry x="320" y="250" width="200" height="8" as="geometry" />
        </mxCell>
        <mxCell id="G_dQVVGBKOdECIuTIiWy-31" style="edgeStyle=orthogonalEdgeStyle;rounded=0;orthogonalLoop=1;jettySize=auto;html=1;" parent="1" edge="1">
          <mxGeometry relative="1" as="geometry">
            <mxPoint x="481" y="257" as="sourcePoint" />
            <mxPoint x="480.5" y="280" as="targetPoint" />
          </mxGeometry>
        </mxCell>
        <mxCell id="G_dQVVGBKOdECIuTIiWy-35" style="edgeStyle=orthogonalEdgeStyle;rounded=0;orthogonalLoop=1;jettySize=auto;html=1;" parent="1" source="G_dQVVGBKOdECIuTIiWy-32" target="G_dQVVGBKOdECIuTIiWy-20" edge="1">
          <mxGeometry relative="1" as="geometry">
            <Array as="points">
              <mxPoint x="420" y="370" />
              <mxPoint x="640" y="370" />
            </Array>
          </mxGeometry>
        </mxCell>
        <mxCell id="G_dQVVGBKOdECIuTIiWy-32" value="" style="line;strokeWidth=1;fillColor=none;align=left;verticalAlign=middle;spacingTop=-1;spacingLeft=3;spacingRight=3;rotatable=0;labelPosition=right;points=[];portConstraint=eastwest;" parent="1" vertex="1">
          <mxGeometry x="320" y="340" width="200" height="8" as="geometry" />
        </mxCell>
        <mxCell id="G_dQVVGBKOdECIuTIiWy-33" style="edgeStyle=orthogonalEdgeStyle;rounded=0;orthogonalLoop=1;jettySize=auto;html=1;" parent="1" edge="1">
          <mxGeometry relative="1" as="geometry">
            <mxPoint x="359.8" y="320" as="sourcePoint" />
            <mxPoint x="359.8" y="343" as="targetPoint" />
            <Array as="points">
              <mxPoint x="359.8" y="320" />
            </Array>
          </mxGeometry>
        </mxCell>
        <mxCell id="G_dQVVGBKOdECIuTIiWy-34" style="edgeStyle=orthogonalEdgeStyle;rounded=0;orthogonalLoop=1;jettySize=auto;html=1;" parent="1" edge="1">
          <mxGeometry relative="1" as="geometry">
            <mxPoint x="480" y="320" as="sourcePoint" />
            <mxPoint x="480" y="343" as="targetPoint" />
            <Array as="points">
              <mxPoint x="480" y="320" />
            </Array>
          </mxGeometry>
        </mxCell>
        <mxCell id="G_dQVVGBKOdECIuTIiWy-41" style="edgeStyle=orthogonalEdgeStyle;rounded=0;orthogonalLoop=1;jettySize=auto;html=1;" parent="1" source="G_dQVVGBKOdECIuTIiWy-36" target="G_dQVVGBKOdECIuTIiWy-40" edge="1">
          <mxGeometry relative="1" as="geometry" />
        </mxCell>
        <mxCell id="G_dQVVGBKOdECIuTIiWy-36" value="Follow system instructions" style="rounded=0;whiteSpace=wrap;html=1;" parent="1" vertex="1">
          <mxGeometry x="120" y="760" width="80" height="40" as="geometry" />
        </mxCell>
        <mxCell id="G_dQVVGBKOdECIuTIiWy-40" value="&lt;font color=&quot;#ffffff&quot;&gt;End&lt;/font&gt;" style="rounded=0;whiteSpace=wrap;html=1;strokeColor=#666666;fontColor=#333333;fillColor=#0D0D0D;" parent="1" vertex="1">
          <mxGeometry x="120" y="840" width="80" height="40" as="geometry" />
        </mxCell>
        <mxCell id="G_dQVVGBKOdECIuTIiWy-42" value="" style="endArrow=none;html=1;" parent="1" edge="1">
          <mxGeometry width="50" height="50" relative="1" as="geometry">
            <mxPoint x="840" y="1120" as="sourcePoint" />
            <mxPoint x="840" y="20" as="targetPoint" />
          </mxGeometry>
        </mxCell>
        <mxCell id="G_dQVVGBKOdECIuTIiWy-44" value="Entering Parking Lot" style="rounded=0;whiteSpace=wrap;html=1;fillColor=#f8cecc;strokeColor=#b85450;" parent="1" vertex="1">
          <mxGeometry x="280" width="280" height="40" as="geometry" />
        </mxCell>
        <mxCell id="G_dQVVGBKOdECIuTIiWy-46" value="Client" style="text;html=1;strokeColor=none;fillColor=none;align=center;verticalAlign=middle;whiteSpace=wrap;rounded=0;" parent="1" vertex="1">
          <mxGeometry x="960" y="60" width="40" height="20" as="geometry" />
        </mxCell>
        <mxCell id="G_dQVVGBKOdECIuTIiWy-47" value="Camera" style="text;html=1;strokeColor=none;fillColor=none;align=center;verticalAlign=middle;whiteSpace=wrap;rounded=0;" parent="1" vertex="1">
          <mxGeometry x="1240" y="60" width="40" height="20" as="geometry" />
        </mxCell>
        <mxCell id="G_dQVVGBKOdECIuTIiWy-48" value="System" style="text;html=1;strokeColor=none;fillColor=none;align=center;verticalAlign=middle;whiteSpace=wrap;rounded=0;" parent="1" vertex="1">
          <mxGeometry x="1520" y="60" width="40" height="20" as="geometry" />
        </mxCell>
        <mxCell id="G_dQVVGBKOdECIuTIiWy-49" value="" style="endArrow=none;html=1;dashed=1;" parent="1" edge="1">
          <mxGeometry width="50" height="50" relative="1" as="geometry">
            <mxPoint x="1120" y="1120" as="sourcePoint" />
            <mxPoint x="1120" y="59.99999999999977" as="targetPoint" />
          </mxGeometry>
        </mxCell>
        <mxCell id="G_dQVVGBKOdECIuTIiWy-50" value="" style="endArrow=none;html=1;dashed=1;" parent="1" edge="1">
          <mxGeometry width="50" height="50" relative="1" as="geometry">
            <mxPoint x="1400" y="1120" as="sourcePoint" />
            <mxPoint x="1400" y="59.99999999999977" as="targetPoint" />
          </mxGeometry>
        </mxCell>
        <mxCell id="G_dQVVGBKOdECIuTIiWy-51" value="Leaving Parking Lot" style="rounded=0;whiteSpace=wrap;html=1;fillColor=#f8cecc;strokeColor=#b85450;" parent="1" vertex="1">
          <mxGeometry x="1120" width="280" height="40" as="geometry" />
        </mxCell>
        <mxCell id="0aZzvvCtcel9WRgSe26O-8" style="edgeStyle=orthogonalEdgeStyle;rounded=0;orthogonalLoop=1;jettySize=auto;html=1;entryX=0.5;entryY=0;entryDx=0;entryDy=0;fontColor=#424242;" edge="1" parent="1" source="G_dQVVGBKOdECIuTIiWy-52" target="G_dQVVGBKOdECIuTIiWy-57">
          <mxGeometry relative="1" as="geometry" />
        </mxCell>
        <mxCell id="G_dQVVGBKOdECIuTIiWy-52" value="START" style="ellipse;whiteSpace=wrap;html=1;aspect=fixed;" parent="1" vertex="1">
          <mxGeometry x="860" y="120" width="40" height="40" as="geometry" />
        </mxCell>
        <mxCell id="0aZzvvCtcel9WRgSe26O-9" style="edgeStyle=orthogonalEdgeStyle;rounded=0;orthogonalLoop=1;jettySize=auto;html=1;entryX=0.5;entryY=0;entryDx=0;entryDy=0;fontColor=#424242;" edge="1" parent="1" source="G_dQVVGBKOdECIuTIiWy-57" target="0aZzvvCtcel9WRgSe26O-7">
          <mxGeometry relative="1" as="geometry" />
        </mxCell>
        <mxCell id="G_dQVVGBKOdECIuTIiWy-57" value="Drive to the exit" style="rounded=0;whiteSpace=wrap;html=1;" parent="1" vertex="1">
          <mxGeometry x="920" y="160" width="80" height="40" as="geometry" />
        </mxCell>
        <mxCell id="0aZzvvCtcel9WRgSe26O-4" value="Client did not paid&lt;br&gt;for parking" style="edgeStyle=orthogonalEdgeStyle;rounded=0;orthogonalLoop=1;jettySize=auto;html=1;fontColor=#424242;" edge="1" parent="1" source="0aZzvvCtcel9WRgSe26O-1" target="0aZzvvCtcel9WRgSe26O-2">
          <mxGeometry relative="1" as="geometry" />
        </mxCell>
        <mxCell id="0aZzvvCtcel9WRgSe26O-5" value="Client paid&lt;br&gt;for parking" style="edgeStyle=orthogonalEdgeStyle;rounded=0;orthogonalLoop=1;jettySize=auto;html=1;fontColor=#424242;" edge="1" parent="1" source="0aZzvvCtcel9WRgSe26O-1" target="0aZzvvCtcel9WRgSe26O-3">
          <mxGeometry relative="1" as="geometry">
            <Array as="points">
              <mxPoint x="1560" y="280" />
            </Array>
          </mxGeometry>
        </mxCell>
        <mxCell id="0aZzvvCtcel9WRgSe26O-17" value="Encountered&lt;br&gt;An error" style="edgeStyle=orthogonalEdgeStyle;rounded=0;orthogonalLoop=1;jettySize=auto;html=1;fontColor=#424242;" edge="1" parent="1" source="0aZzvvCtcel9WRgSe26O-1" target="0aZzvvCtcel9WRgSe26O-18">
          <mxGeometry x="0.4167" relative="1" as="geometry">
            <mxPoint x="1680" y="330" as="targetPoint" />
            <mxPoint y="-1" as="offset" />
          </mxGeometry>
        </mxCell>
        <mxCell id="0aZzvvCtcel9WRgSe26O-1" value="" style="rhombus;whiteSpace=wrap;html=1;" vertex="1" parent="1">
          <mxGeometry x="1440" y="240" width="80" height="80" as="geometry" />
        </mxCell>
        <mxCell id="0aZzvvCtcel9WRgSe26O-11" style="edgeStyle=orthogonalEdgeStyle;rounded=0;orthogonalLoop=1;jettySize=auto;html=1;entryX=1;entryY=0.5;entryDx=0;entryDy=0;fontColor=#424242;" edge="1" parent="1" source="0aZzvvCtcel9WRgSe26O-2" target="0aZzvvCtcel9WRgSe26O-6">
          <mxGeometry relative="1" as="geometry" />
        </mxCell>
        <mxCell id="0aZzvvCtcel9WRgSe26O-2" value="Direct client to terminal" style="rounded=0;whiteSpace=wrap;html=1;" vertex="1" parent="1">
          <mxGeometry x="1440" y="400" width="80" height="40" as="geometry" />
        </mxCell>
        <mxCell id="0aZzvvCtcel9WRgSe26O-14" style="edgeStyle=orthogonalEdgeStyle;rounded=0;orthogonalLoop=1;jettySize=auto;html=1;entryX=0.5;entryY=0;entryDx=0;entryDy=0;fontColor=#424242;" edge="1" parent="1" source="0aZzvvCtcel9WRgSe26O-3" target="0aZzvvCtcel9WRgSe26O-13">
          <mxGeometry relative="1" as="geometry" />
        </mxCell>
        <mxCell id="0aZzvvCtcel9WRgSe26O-3" value="Open gate" style="rounded=0;whiteSpace=wrap;html=1;" vertex="1" parent="1">
          <mxGeometry x="1520" y="640" width="80" height="40" as="geometry" />
        </mxCell>
        <mxCell id="0aZzvvCtcel9WRgSe26O-12" style="edgeStyle=orthogonalEdgeStyle;rounded=0;orthogonalLoop=1;jettySize=auto;html=1;entryX=0.5;entryY=1;entryDx=0;entryDy=0;fontColor=#424242;" edge="1" parent="1" source="0aZzvvCtcel9WRgSe26O-6" target="G_dQVVGBKOdECIuTIiWy-57">
          <mxGeometry relative="1" as="geometry" />
        </mxCell>
        <mxCell id="0aZzvvCtcel9WRgSe26O-6" value="Go to the terminal and pay" style="rounded=0;whiteSpace=wrap;html=1;" vertex="1" parent="1">
          <mxGeometry x="920" y="480" width="80" height="40" as="geometry" />
        </mxCell>
        <mxCell id="0aZzvvCtcel9WRgSe26O-10" style="edgeStyle=orthogonalEdgeStyle;rounded=0;orthogonalLoop=1;jettySize=auto;html=1;entryX=0.5;entryY=0;entryDx=0;entryDy=0;fontColor=#424242;" edge="1" parent="1" source="0aZzvvCtcel9WRgSe26O-7" target="0aZzvvCtcel9WRgSe26O-1">
          <mxGeometry relative="1" as="geometry" />
        </mxCell>
        <mxCell id="0aZzvvCtcel9WRgSe26O-7" value="Scan license plate" style="rounded=0;whiteSpace=wrap;html=1;" vertex="1" parent="1">
          <mxGeometry x="1200" y="200" width="80" height="40" as="geometry" />
        </mxCell>
        <mxCell id="0aZzvvCtcel9WRgSe26O-16" style="edgeStyle=orthogonalEdgeStyle;rounded=0;orthogonalLoop=1;jettySize=auto;html=1;entryX=0.5;entryY=0;entryDx=0;entryDy=0;fontColor=#424242;" edge="1" parent="1" source="0aZzvvCtcel9WRgSe26O-13" target="0aZzvvCtcel9WRgSe26O-15">
          <mxGeometry relative="1" as="geometry" />
        </mxCell>
        <mxCell id="0aZzvvCtcel9WRgSe26O-13" value="Ride out of parking" style="rounded=0;whiteSpace=wrap;html=1;" vertex="1" parent="1">
          <mxGeometry x="880" y="720" width="80" height="40" as="geometry" />
        </mxCell>
        <mxCell id="0aZzvvCtcel9WRgSe26O-15" value="&lt;font color=&quot;#ffffff&quot;&gt;End&lt;/font&gt;" style="rounded=0;whiteSpace=wrap;html=1;strokeColor=#666666;fontColor=#333333;fillColor=#0D0D0D;" vertex="1" parent="1">
          <mxGeometry x="880" y="920" width="80" height="40" as="geometry" />
        </mxCell>
        <mxCell id="0aZzvvCtcel9WRgSe26O-20" style="edgeStyle=orthogonalEdgeStyle;rounded=0;orthogonalLoop=1;jettySize=auto;html=1;fontColor=#424242;" edge="1" parent="1" source="0aZzvvCtcel9WRgSe26O-18" target="0aZzvvCtcel9WRgSe26O-19">
          <mxGeometry relative="1" as="geometry">
            <Array as="points">
              <mxPoint x="1640" y="720" />
              <mxPoint x="1040" y="720" />
            </Array>
          </mxGeometry>
        </mxCell>
        <mxCell id="0aZzvvCtcel9WRgSe26O-18" value="Show number to call for help" style="rounded=0;whiteSpace=wrap;html=1;" vertex="1" parent="1">
          <mxGeometry x="1600" y="400" width="80" height="40" as="geometry" />
        </mxCell>
        <mxCell id="0aZzvvCtcel9WRgSe26O-24" style="edgeStyle=orthogonalEdgeStyle;rounded=0;orthogonalLoop=1;jettySize=auto;html=1;entryX=0.5;entryY=0;entryDx=0;entryDy=0;fontColor=#424242;" edge="1" parent="1" source="0aZzvvCtcel9WRgSe26O-19" target="0aZzvvCtcel9WRgSe26O-23">
          <mxGeometry relative="1" as="geometry" />
        </mxCell>
        <mxCell id="0aZzvvCtcel9WRgSe26O-19" value="Call Employee" style="rounded=0;whiteSpace=wrap;html=1;" vertex="1" parent="1">
          <mxGeometry x="1000" y="760" width="80" height="40" as="geometry" />
        </mxCell>
        <mxCell id="0aZzvvCtcel9WRgSe26O-21" value="" style="endArrow=none;html=1;dashed=1;" edge="1" parent="1">
          <mxGeometry width="50" height="50" relative="1" as="geometry">
            <mxPoint x="1680" y="1115" as="sourcePoint" />
            <mxPoint x="1680" y="54.99999999999977" as="targetPoint" />
          </mxGeometry>
        </mxCell>
        <mxCell id="0aZzvvCtcel9WRgSe26O-22" value="Employee" style="text;html=1;strokeColor=none;fillColor=none;align=center;verticalAlign=middle;whiteSpace=wrap;rounded=0;" vertex="1" parent="1">
          <mxGeometry x="1800" y="60" width="40" height="20" as="geometry" />
        </mxCell>
        <mxCell id="0aZzvvCtcel9WRgSe26O-25" style="edgeStyle=orthogonalEdgeStyle;rounded=0;orthogonalLoop=1;jettySize=auto;html=1;entryX=0.5;entryY=0;entryDx=0;entryDy=0;fontColor=#424242;" edge="1" parent="1" source="0aZzvvCtcel9WRgSe26O-23" target="0aZzvvCtcel9WRgSe26O-15">
          <mxGeometry relative="1" as="geometry">
            <Array as="points">
              <mxPoint x="1820" y="880" />
              <mxPoint x="920" y="880" />
            </Array>
          </mxGeometry>
        </mxCell>
        <mxCell id="0aZzvvCtcel9WRgSe26O-23" value="Open the gate manually" style="rounded=0;whiteSpace=wrap;html=1;" vertex="1" parent="1">
          <mxGeometry x="1780" y="800" width="80" height="40" as="geometry" />
        </mxCell>
      </root>
    </mxGraphModel>
  </diagram>
</mxfile>
